# xmcd
#
# Track frame offsets:
#	150
#	13191
#	23360
#	35499
#	47182
#	56662
#	71132
#	84605
#	95565
#	105029
#	117208
#	128308
#
# Disc length: 1876 seconds
#
# Revision: 1
# Processed by: cddbd v1.5.1PL0 Copyright (c) Steve Scherf et al.
# Submitted via: EasyCDDAExtractor 7.0.9.1
#
DISCID=8f07520c
DTITLE=Chuck Simms - Country Classics
DYEAR=2002
DGENRE=Newfoundland
TTITLE0=There Goes My Everything
TTITLE1=Act Naturally
TTITLE2=Okie From Muskogee
TTITLE3=Before the Next Teardrop Falls
TTITLE4=Mama Tried
TTITLE5=Good Hearted Woman
TTITLE6=Devil Woman
TTITLE7=Silver Threads and Golden Needles
TTITLE8=Tennesse Waltz
TTITLE9=Your Cheatin' Heart
TTITLE10=Pick Me Up On Your Way Down
TTITLE11=Sing Me Back Home
EXTD=
EXTT0=
EXTT1=
EXTT2=
EXTT3=
EXTT4=
EXTT5=
EXTT6=
EXTT7=
EXTT8=
EXTT9=
EXTT10=
EXTT11=
PLAYORDER=
